<svg xmlns="http://www.w3.org/2000/svg" width="64" height="64" viewBox="0 0 64 64" role="img" aria-labelledby="title">
  <title id="title">SHU・HA・RI</title>
  <rect width="64" height="64" rx="16" fill="#0f172a"/>
  <path d="M16 43V21h7.6c5.2 0 8.3 2.3 8.3 6.1 0 2.2-1.1 3.8-3.1 4.8 2.5.9 3.9 2.8 3.9 5.2 0 4-3.1 5.9-8.9 5.9H16Zm5.4-13h2.2c2 0 3-.8 3-2.4s-1-2.4-3.1-2.4h-2.1V30Zm0 8.7H24c2.2 0 3.2-.8 3.2-2.5 0-1.8-1.1-2.6-3.3-2.6h-2.5v5.1Z" fill="#f8fafc"/>
  <path d="M37 43V21h5.4v8.5h8.2V21H56v22h-5.4v-9h-8.2v9H37Z" fill="#60a5fa"/>
  <path d="M12 51h40" stroke="#3b82f6" stroke-width="3" stroke-linecap="round"/>
</svg>
